<?xml version="1.0" encoding="UTF-8"?>
<svg width="18px" height="16px" viewBox="0 0 18 16" version="1.1" xmlns="http://www.w3.org/2000/svg" xmlns:xlink="http://www.w3.org/1999/xlink">
    <!-- Generator: Sketch 52.4 (67378) - http://www.bohemiancoding.com/sketch -->
    <title>Icon 1</title>
    <desc>Created with Sketch.</desc>
    <g id="Prototype" stroke="none" stroke-width="1" fill="none" fill-rule="evenodd">
        <g id="Offers" transform="translate(-410.000000, -129.000000)" fill="#9FA9BA">
            <g id="Menu" transform="translate(409.000000, 100.000000)">
                <path d="M17,34 C17,34.334 16.903,36 15,36 L15,33 L17,33 L17,34 Z M13,33 L13,36 L13,36.624 L12.749,37.199 C12.27,38.293 11.191,39 10,39 C8.809,39 7.73,38.293 7.251,37.199 L7,36.624 L7,36 L7,33 L7,31 L13,31 L13,33 Z M5,36 C3.174,36 3.008,34.464 3,34 L3,33 L5,33 L5,36 Z M18,31 L15,31 L15,30 C15,29.448 14.552,29 14,29 L6,29 C5.448,29 5,29.448 5,30 L5,31 L2,31 C1.448,31 1,31.448 1,32 L1,34 C1,35.607 2.065,38 5,38 L5.419,38 C6.191,39.765 7.95,41 10,41 C12.05,41 13.809,39.765 14.581,38 L15,38 C17.935,38 19,35.607 19,34 L19,32 C19,31.448 18.552,31 18,31 L18,31 Z M15.023,38.022 C15.037,38.022 15.039,38.016 15,38 L15,38.02 C15.008,38.021 15.016,38.022 15.023,38.022 L15.023,38.022 Z M9,43 L8,43 C6.895,43 6,43.896 6,45 L14,45 C14,43.896 13.104,43 12,43 L11,43 L11,41 L10,41 L9,41 L9,43 Z M4.977,38.022 C4.983,38.022 4.991,38.021 5,38.02 L5,38 C4.961,38.016 4.962,38.022 4.977,38.022 L4.977,38.022 Z" id="Icon-1"></path>
            </g>
        </g>
    </g>
</svg>